Coordinates
version=1
nRows=24
nColumns=24
inDegrees=yes

Units are S.I. units (second, meters, Newtons, ...)
Angles are in degrees.

endheader
time	pelvis_tilt	pelvis_list	pelvis_rotation	pelvis_tx	pelvis_ty	pelvis_tz	hip_flexion_r	hip_adduction_r	hip_rotation_r	knee_angle_r	ankle_angle_r	subtalar_angle_r	mtp_angle_r	hip_flexion_l	hip_adduction_l	hip_rotation_l	knee_angle_l	ankle_angle_l	subtalar_angle_l	mtp_angle_l	lumbar_extension	lumbar_bending	lumbar_rotation
      3.58000000	     -9.58033492	    -11.17336210	     -0.58310759	     -1.30917396	     -0.02558144	     -0.24020857	     15.96353469	     16.10636844	      1.83646768	    -18.27942923	      4.29005211	      0.88566975	     13.12883688	     26.48259187	    -16.31854006	     -3.97610946	    -66.07919474	     -4.88559045	      1.66946199	      2.30196179	     10.17158540	     11.57238106	     -6.53933312
      3.58500000	     -9.41368310	    -10.88096013	     -0.69018691	     -1.30260735	     -0.02426848	     -0.23963343	     14.88851199	     15.92874849	      2.41912764	    -17.60856005	      4.22360457	      0.50746383	     12.55396285	     27.01311756	    -16.00828948	     -4.23847522	    -65.55300241	     -4.30511705	      1.67132676	      2.37541893	      9.96678146	     11.30426098	     -6.19941967
      3.59000000	     -9.27070564	    -10.57595606	     -0.79733638	     -1.29608168	     -0.02301435	     -0.23904889	     13.85680397	     15.71451124	      2.88758535	    -16.94820608	      4.16624173	      0.22588301	     12.05268922	     27.55407129	    -15.68545138	     -4.51000459	    -64.94757338	     -3.76834468	      1.77497941	      2.48892942	      9.78726976	     11.01879677	     -5.85231962
      3.59500000	     -9.13343338	    -10.28756949	     -0.90593318	     -1.28958062	     -0.02182538	     -0.23849208	     12.84117159	     15.49704220	      3.29226570	    -16.28969533	      4.09994579	      0.01731946	     11.60175737	     28.08388359	    -15.37730220	     -4.78089148	    -64.26966901	     -3.23076790	      1.96273892	      2.62803600	      9.61277092	     10.75282095	     -5.51888859
      3.60000000	     -9.00403625	    -10.01888147	     -1.01321302	     -1.28310433	     -0.02071460	     -0.23794264	     11.84060848	     15.28223634	      3.63958540	    -15.62723539	      4.03667458	     -0.11608994	     11.20695772	     28.60787771	    -15.08821549	     -5.04836012	    -63.52254958	     -2.70410961	      2.20843130	      2.76508065	      9.44652877	     10.50805719	     -5.19605920
      3.60500000	     -8.87975229	     -9.76970330	     -1.12204629	     -1.27664369	     -0.01968006	     -0.23741857	     10.85596455	     15.07049008	      3.92254334	    -14.96984132	      3.96850905	     -0.17771736	     10.87466151	     29.11936949	    -14.81654954	     -5.31318621	    -62.70699043	     -2.18447776	      2.50122493	      2.88628677	      9.28723825	     10.28611810	     -4.88053723
      3.61000000	     -8.74767563	     -9.54803212	     -1.22999216	     -1.27019119	     -0.01872394	     -0.23691875	      9.86624314	     14.87290401	      4.17610846	    -14.30892056	      3.90013411	     -0.18328838	     10.58864089	     29.60546249	    -14.56982265	     -5.57203028	    -61.82752938	     -1.67074738	      2.81506154	      2.96855309	      9.12106642	     10.09439325	     -4.57358693
      3.61500000	     -8.64264633	     -9.33683362	     -1.34016982	     -1.26375143	     -0.01786819	     -0.23643157	      8.93430410	     14.67282937	      4.32229937	    -13.68461102	      3.81983579	     -0.12285934	     10.39019440	     30.09610014	    -14.32738028	     -5.82158424	    -60.87359401	     -1.15129364	      3.15879467	      3.03017741	      8.98600132	      9.91423330	     -4.27534418
      3.62000000	     -8.50518262	     -9.15689309	     -1.44420322	     -1.25730214	     -0.01707252	     -0.23598577	      7.95786920	     14.49217319	      4.48038331	    -13.03884463	      3.74713986	     -0.01749889	     10.23869867	     30.53886997	    -14.11688563	     -6.07037040	    -59.86791942	     -0.66455661	      3.50765136	      3.01023456	      8.81915283	      9.77427532	     -3.97093320
      3.62500000	     -8.38047774	     -8.99256172	     -1.54771913	     -1.25086004	     -0.01637963	     -0.23556056	      7.01909395	     14.31944263	      4.58044144	    -12.42827043	      3.67092204	      0.12154962	     10.14477613	     30.97057110	    -13.91460185	     -6.30930904	    -58.79347971	     -0.15990155	      3.85657883	      2.93550410	      8.66800593	      9.64914893	     -3.67742181
      3.63000000	     -8.26812783	     -8.83752156	     -1.65522458	     -1.24441637	     -0.01578132	     -0.23515602	      6.11977195	     14.14959946	      4.62989301	    -11.86120249	      3.58432298	      0.28994277	     10.09709431	     31.38533252	    -13.71492948	     -6.54031868	    -57.64745856	      0.35503472	      4.19814940	      2.81654536	      8.53096234	      9.53445163	     -3.39441212
      3.63500000	     -8.13403313	     -8.69777007	     -1.75471102	     -1.23795514	     -0.01525037	     -0.23479554	      5.20166858	     13.98660126	      4.67668369	    -11.30253985	      3.51172313	      0.48398822	     10.09497736	     31.75402159	    -13.52564287	     -6.77282462	    -56.44312102	      0.86359401	      4.53093917	      2.59073358	      8.37457670	      9.44299113	     -3.10573357
      3.64000000	     -7.98053443	     -8.57923719	     -1.84303935	     -1.23149527	     -0.01480956	     -0.23451091	      4.26971487	     13.83442533	      4.74817458	    -10.75562871	      3.46136767	      0.70285058	     10.15864012	     32.08380649	    -13.33801408	     -6.98066445	    -55.19270042	      1.41340343	      4.83833070	      2.16874243	      8.20159163	      9.37981195	     -2.82633751
      3.64500000	     -7.87595734	     -8.45067989	     -1.94211239	     -1.22503763	     -0.01447832	     -0.23417818	      3.42792934	     13.67676925	      4.73113530	    -10.27055279	      3.39689486	      0.91529026	     10.21753912	     32.43351188	    -13.15707527	     -7.22264892	    -53.86817770	      1.94089192	      5.17797149	      1.77855914	      8.07790941	      9.29652301	     -2.54441885
      3.65000000	     -7.75191628	     -8.32400209	     -2.03082179	     -1.21859741	     -0.01420041	     -0.23395267	      2.58071168	     13.50783174	      4.75257079	     -9.81399136	      3.34878899	      1.15478325	     10.32027503	     32.73148313	    -12.94557501	     -7.42474813	    -52.47719345	      2.49323301	      5.49035983	      1.22100489	      7.93078025	      9.23070465	     -2.27255909
      3.65500000	     -7.66409129	     -8.19957686	     -2.12422695	     -1.21214739	     -0.01404642	     -0.23368288	      1.79359824	     13.34731184	      4.73663900	     -9.39450575	      3.32221158	      1.37668748	     10.42351200	     33.04401934	    -12.75147829	     -7.65835156	    -51.03146277	      3.03049343	      5.81690756	      0.64941521	      7.82872715	      9.15581299	     -2.00578230
      3.66000000	     -7.59045269	     -8.07193726	     -2.21495685	     -1.20572397	     -0.01396100	     -0.23347589	      1.04382784	     13.17682550	      4.73237364	     -9.01187141	      3.30120829	      1.60858005	     10.53173255	     33.34028838	    -12.53565999	     -7.86623335	    -49.51550694	      3.55420157	      6.14797667	      0.02632434	      7.73467751	      9.08721320	     -1.74594253
      3.66500000	     -7.50576022	     -7.94353896	     -2.31380338	     -1.19935711	     -0.01392103	     -0.23332046	      0.31156395	     12.99807712	      4.74982960	     -8.68112269	      3.29476832	      1.86848773	     10.67361677	     33.59233509	    -12.30714380	     -8.05165377	    -47.94240772	      4.10647887	      6.51994789	     -0.73943452	      7.61239136	      9.03069658	     -1.45205920
      3.67000000	     -7.44851203	     -7.81024733	     -2.40203108	     -1.19299135	     -0.01398316	     -0.23321762	     -0.36876442	     12.81164234	      4.73808276	     -8.38559965	      3.30453895	      2.11608156	     10.83253321	     33.84867959	    -12.06761612	     -8.24934577	    -46.31825770	      4.68560082	      6.93518169	     -1.58806784	      7.52430320	      8.96828105	     -1.16748476
      3.67500000	     -7.56615556	     -7.70675865	     -2.44906572	     -1.18664568	     -0.01430197	     -0.23310520	     -0.83164561	     12.67851385	      4.70497840	     -8.13582519	      3.30548320	      2.22622318	     10.84789029	     34.29397384	    -11.83478768	     -8.35751092	    -44.60893572	      5.00059372	      7.32858969	     -1.78817946	      7.63763028	      8.92405645	     -1.02368553
      3.68000000	     -7.38814907	     -7.54586764	     -2.51645140	     -1.18023970	     -0.01431742	     -0.23308086	     -1.61930998	     12.44229930	      4.60490044	     -7.87134230	      3.33768935	      2.61533137	     11.13871254	     34.34268123	    -11.55838646	     -8.60508886	    -42.89880136	      5.77065311	      7.92510290	     -3.28983725	      7.41818871	      8.83143310	     -0.74342684
      3.68500000	     -7.50669119	     -7.38807035	     -2.68380443	     -1.17392879	     -0.01464372	     -0.23289349	     -2.03692087	     12.24140679	      4.68081733	     -7.71731731	      3.36587715	      2.80749227	     11.20476430	     34.67379572	    -11.34636200	     -8.89423105	    -41.05792998	      6.04751546	      8.40092625	     -3.57674095	      7.50544401	      8.75378829	     -0.43323817
      3.69000000	     -7.46691357	     -7.20942151	     -2.82583217	     -1.16764843	     -0.01487116	     -0.23282784	     -2.60107946	     11.99501865	      4.69007139	     -7.59758187	      3.46192176	      3.11663844	     11.35252771	     34.78997472	    -11.08060954	     -9.14054244	    -39.17298280	      6.48971072	      9.00848011	     -4.14367556	      7.39869874	      8.66506105	     -0.06708975
      3.69500000	     -7.49815902	     -7.03476453	     -2.94402717	     -1.16134325	     -0.01520241	     -0.23280447	     -3.07295671	     11.75283802	      4.65903543	     -7.49725277	      3.53809665	      3.43193923	     11.51200193	     34.96964779	    -10.80899861	     -9.38070810	    -37.26477553	      6.91397469	      9.70364167	     -4.76546581	      7.38152879	      8.57309526	      0.21425769
